<svg width="1440" height="225" viewBox="0 0 1440 225" fill="none" xmlns="http://www.w3.org/2000/svg">
<path d="M60.8832 75.9559C60.5339 74.3841 59.1368 72.9871 57.3905 72.9871C55.6441 72.9871 54.5963 74.0349 54.0724 75.2573C54.0724 75.2573 54.0724 75.2573 53.8978 75.2573C53.0246 75.2573 52.3261 75.6066 51.6275 76.1305C50.929 74.5588 49.3573 73.3363 47.6109 72.8124C47.087 66.1763 41.6733 60.9373 34.8626 60.9373C28.0518 60.9373 22.8128 66.0017 22.1142 72.6378C20.8918 72.6378 19.844 72.9871 18.9708 73.511C17.7483 71.0661 15.3035 69.3197 12.3347 69.3197C9.36587 69.3197 5 72.6378 5 76.6544H65.5983C64.8998 75.7812 64.0266 75.2573 62.8041 75.2573C61.5817 75.2573 61.4071 75.6066 60.8832 75.9559Z" fill="#EEF0F7"/>
<path d="M441.518 10.6423C439.772 10.6423 438.2 11.3409 436.978 12.5633C435.755 11.3409 434.183 10.4677 432.262 10.4677C430.341 10.4677 430.865 10.4677 430.167 10.817C429.643 6.10183 425.626 2.60913 420.911 2.60913C416.196 2.60913 411.481 6.80037 411.481 12.0394C410.782 11.8648 410.258 11.6901 409.56 11.6901C408.163 11.6901 406.766 12.214 405.718 13.0872C404.67 11.6901 403.098 10.817 401.177 10.817C399.256 10.817 396.462 12.5633 395.764 14.8336H395.415C393.319 14.8336 391.573 16.056 390.874 17.977H447.63C447.63 17.6277 447.63 17.1038 447.63 16.7546C447.63 13.2619 444.836 10.4677 441.343 10.4677L441.518 10.6423Z" fill="#EEF0F7"/>
<path d="M453.387 72.2881C453.038 70.891 451.99 70.0178 450.593 70.0178C449.196 70.0178 448.323 70.7163 447.974 71.9388C447.974 71.9388 447.974 71.9388 447.799 71.9388C447.101 71.9388 446.577 72.2881 446.053 72.6373C445.354 71.4149 444.306 70.3671 442.909 70.0178C442.56 64.7788 438.194 60.5875 432.781 60.5875C427.367 60.5875 423.176 64.6041 422.652 69.8432C421.778 69.8432 420.905 70.1924 420.032 70.5417C419.159 68.6207 417.063 67.2237 414.793 67.2237C412.523 67.2237 409.03 69.8432 409.03 72.9866H457.229C456.705 72.2881 456.007 71.9388 454.959 71.9388C453.911 71.9388 453.911 72.1134 453.387 72.4627V72.2881Z" fill="#FCFCFC"/>
<path d="M824.397 93.5259C818.29 93.5259 812.888 97.284 810.304 102.451C808.19 101.277 806.076 100.572 803.493 100.572C800.909 100.572 803.493 100.572 803.258 100.572C802.083 86.7142 790.574 75.9095 776.246 75.9095C761.918 75.9095 750.409 86.9491 749.234 101.042C745.476 101.982 742.423 104.565 740.778 107.854C739.369 106.679 737.725 105.975 736.081 105.975C734.437 105.975 735.611 105.975 735.611 105.975C734.437 103.156 731.853 101.042 728.564 101.042C725.276 101.042 721.988 103.626 721.283 107.149C720.109 106.444 718.699 105.74 717.29 105.74C714.941 105.74 712.827 106.914 711.418 108.558H840.134C840.134 100.103 833.088 93.0561 824.632 93.0561L824.397 93.5259Z" fill="white"/>
<path d="M1395.14 64.4892C1390.54 64.4892 1386.47 67.3669 1384.52 71.3237C1382.93 70.4245 1381.33 69.8849 1379.39 69.8849C1377.44 69.8849 1379.39 69.8849 1379.21 69.8849C1378.32 59.2734 1369.65 51 1358.85 51C1348.06 51 1339.38 59.4532 1338.5 70.2446C1335.67 70.964 1333.36 72.9424 1332.13 75.4604C1331.06 74.5612 1329.82 74.0216 1328.59 74.0216C1327.35 74.0216 1328.23 74.0216 1328.23 74.0216C1327.35 71.8633 1325.4 70.2446 1322.92 70.2446C1320.44 70.2446 1317.97 72.223 1317.43 74.9209C1316.55 74.3813 1315.49 73.8417 1314.43 73.8417C1312.66 73.8417 1311.06 74.741 1310 76H1407C1407 69.5252 1401.69 64.1295 1395.32 64.1295L1395.14 64.4892Z" fill="white"/>
<path d="M715.884 130.872C715.884 129.933 714.944 129.228 713.77 129.228C712.595 129.228 712.126 129.698 711.891 130.638C711.421 130.638 710.951 130.638 710.481 131.107C710.012 130.168 709.072 129.463 708.133 129.228C707.898 125.235 704.609 122.182 700.616 122.182C696.623 122.182 693.57 125.235 693.1 128.993C692.395 128.993 691.691 128.993 691.221 129.463C690.516 128.054 689.107 126.879 687.228 126.879C685.349 126.879 683 128.759 683 131.107H718.702C718.233 130.638 717.763 130.403 717.058 130.403C716.354 130.403 716.354 130.403 715.884 130.872Z" fill="white"/>
<path d="M1250.24 125C1248.36 125 1246.72 125.705 1245.55 127.114C1244.37 125.705 1242.49 125 1240.61 125C1238.73 125 1238.97 125 1238.26 125.47C1237.56 120.537 1233.57 116.779 1228.4 116.779C1223.23 116.779 1218.53 121.242 1218.53 126.644C1217.83 126.644 1217.12 126.175 1216.42 126.175C1214.78 126.175 1213.37 126.644 1212.43 127.584C1211.25 126.175 1209.61 125.235 1207.73 125.235C1205.85 125.235 1202.8 127.114 1202.09 129.463C1202.09 129.463 1201.86 129.463 1201.62 129.463C1199.51 129.463 1197.63 130.872 1196.69 132.751H1257.05C1257.05 132.282 1257.05 131.812 1257.05 131.342C1257.05 127.819 1254 124.765 1250.48 124.765L1250.24 125Z" fill="white"/>
<path d="M1036.11 75.4954C1034.7 75.4954 1033.29 75.4954 1032.12 75.9651C1030.24 74.0861 1027.65 72.6768 1024.6 72.4419C1023.19 72.4419 1021.55 72.4419 1020.14 72.9117V72.4419C1020.14 63.2814 1012.86 56 1003.7 56C994.535 56 987.254 63.2814 987.254 72.4419C986.314 72.4419 985.609 72.4419 984.67 72.6768C982.791 70.093 979.737 68.4489 976.449 68.214C970.107 67.7442 964.47 72.6768 964 79.0186C964 79.2535 964 79.4884 964 79.7233H1044.1C1042.22 77.1396 1039.16 75.4954 1035.87 75.2605L1036.11 75.4954Z" fill="white"/>
</svg>
