<svg width="1440" height="225" viewBox="0 0 1440 225" fill="none" xmlns="http://www.w3.org/2000/svg">
<path d="M370.266 44.1721C370.266 43.4735 369.568 42.9496 368.695 42.9496C367.821 42.9496 367.472 43.2989 367.298 43.9974C366.948 43.9974 366.599 43.9974 366.25 44.3467C365.9 43.6482 365.202 43.1243 364.503 42.9496C364.329 39.9808 361.884 37.7106 358.915 37.7106C355.946 37.7106 353.676 39.9808 353.327 42.775C352.803 42.775 352.279 42.775 351.93 43.1243C351.406 42.0764 350.358 41.2033 348.961 41.2033C347.564 41.2033 345.817 42.6003 345.817 44.3467H372.362C372.013 43.9974 371.663 43.8228 371.139 43.8228C370.616 43.8228 370.616 43.8228 370.266 44.1721Z" fill="#EEF0F7"/>
<path d="M163.849 89.7519C163.674 89.7519 163.5 89.7519 163.325 89.7519C162.452 86.7831 159.483 84.5128 156.165 84.5128C152.847 84.5128 151.625 85.7353 150.227 87.4816C148.83 86.4338 147.084 85.7353 145.163 85.7353C143.242 85.7353 143.417 85.9099 142.543 86.2592C142.543 79.4484 136.955 73.8601 130.144 73.8601C123.334 73.8601 118.619 78.5753 117.92 84.6875C117.047 84.3382 115.999 84.1636 115.126 84.1636C112.681 84.1636 110.585 85.2114 109.014 86.9577C107.442 85.386 105.346 84.3382 103.076 84.3382C98.5355 84.3382 94.8682 88.0055 94.8682 92.546C94.8682 97.0865 94.8682 93.5938 94.8682 94.1178H169.612C168.564 91.6729 166.294 90.1011 163.5 90.1011L163.849 89.7519Z" fill="#EEF0F7"/>
<path d="M256.929 23.5655C252.388 23.5655 248.372 26.3597 246.451 30.2016C244.879 29.3285 243.307 28.8046 241.386 28.8046C239.465 28.8046 241.386 28.8046 241.212 28.8046C240.339 18.5011 231.782 10.4679 221.129 10.4679C210.476 10.4679 201.919 18.6757 201.046 29.1538C198.252 29.8524 195.981 31.7734 194.759 34.2182C193.711 33.3451 192.489 32.8212 191.266 32.8212C190.044 32.8212 190.917 32.8212 190.917 32.8212C190.044 30.7255 188.123 29.1538 185.678 29.1538C183.233 29.1538 180.788 31.0748 180.264 33.6943C179.391 33.1704 178.343 32.6465 177.295 32.6465C175.549 32.6465 173.977 33.5197 172.93 34.7421H268.629C268.629 28.4553 263.39 23.2162 257.104 23.2162L256.929 23.5655Z" fill="#EEF0F7"/>
<path d="M120.011 13.7855C118.439 13.7855 116.867 14.484 115.82 15.5318C114.772 14.3094 113.2 13.6108 111.628 13.6108C110.057 13.6108 110.231 13.6108 109.707 13.9601C109.183 9.76887 105.516 6.45081 101.15 6.45081C96.7844 6.45081 92.5932 10.2928 92.5932 15.0079C92.0693 14.8333 91.3707 14.6586 90.8468 14.6586C89.4497 14.6586 88.2273 15.1825 87.3541 15.8811C86.4809 14.6586 84.9092 13.7855 83.3375 13.7855C81.7658 13.7855 78.9716 15.3572 78.4477 17.4528C78.4477 17.4528 78.2731 17.4528 78.0985 17.4528C76.1775 17.4528 74.6058 18.6752 73.9072 20.247H125.948C125.948 19.8977 125.948 19.5484 125.948 19.1992C125.948 16.0557 123.329 13.4362 120.185 13.4362L120.011 13.7855Z" fill="#FCFCFC"/>
<path d="M541.93 68.6209C541.755 68.6209 541.58 68.6209 541.231 68.6209C540.009 64.9536 536.691 62.1594 532.674 62.1594C528.657 62.1594 527.26 63.5565 525.514 65.6521C523.768 64.255 521.672 63.3819 519.402 63.3819C517.131 63.3819 517.306 63.5565 516.258 63.9058C516.258 63.9058 516.258 63.9058 516.258 63.7311C516.258 55.5233 509.622 48.7125 501.24 48.7125C492.857 48.7125 487.443 54.4755 486.396 61.8101C485.348 61.4609 484.125 61.1116 482.903 61.1116C479.934 61.1116 477.315 62.334 475.568 64.4297C473.822 62.5087 471.202 61.2862 468.408 61.2862C462.995 61.2862 458.454 65.6521 458.454 71.2404C458.454 76.8287 458.454 72.6375 458.629 73.1614H549.264C548.042 70.3673 545.248 68.2716 541.93 68.2716V68.6209Z" fill="#FCFCFC"/>
<path d="M1187.53 132.517C1187.53 131.577 1186.59 130.872 1185.42 130.872C1184.24 130.872 1183.77 131.342 1183.54 132.282C1183.07 132.282 1182.6 132.282 1182.13 132.751C1181.66 131.812 1180.72 131.107 1179.78 130.872C1179.54 126.879 1176.25 123.826 1172.26 123.826C1168.27 123.826 1165.22 126.879 1164.75 130.637C1164.04 130.637 1163.34 130.637 1162.87 131.107C1162.16 129.698 1160.75 128.523 1158.87 128.523C1156.99 128.523 1154.65 130.403 1154.65 132.751H1190.35C1189.88 132.282 1189.41 132.047 1188.7 132.047C1188 132.047 1188 132.047 1187.53 132.517Z" fill="white"/>
<path d="M1092.17 108.558C1089.82 108.558 1087.7 109.968 1086.53 111.612C1086.06 111.612 1085.35 111.612 1084.88 111.612C1084.88 105.27 1079.72 100.338 1073.61 100.338C1067.5 100.338 1062.33 105.505 1062.33 111.612C1062.33 117.719 1062.33 111.847 1062.33 112.082C1061.4 111.847 1060.46 111.612 1059.28 111.612C1057.17 111.612 1055.52 112.786 1054.11 113.961C1053.17 113.726 1052.23 113.491 1051.3 113.726C1048.95 113.726 1046.83 115.135 1045.66 116.779H1101.09V116.31C1100.86 111.847 1096.86 108.558 1092.64 108.793L1092.17 108.558Z" fill="white"/>
<path d="M1180.93 43.2209C1183.27 43.2209 1185.39 44.6302 1186.56 46.2744C1187.03 46.2744 1187.74 46.2744 1188.21 46.2744C1188.21 39.9326 1193.37 35 1199.48 35C1205.59 35 1210.76 40.1674 1210.76 46.2744C1210.76 52.3814 1210.76 46.5093 1210.76 46.7442C1211.7 46.5093 1212.63 46.2744 1213.81 46.2744C1215.92 46.2744 1217.57 47.4489 1218.98 48.6233C1219.92 48.3884 1220.86 48.1535 1221.8 48.3884C1224.14 48.3884 1226.26 49.7977 1227.43 51.4419H1172V50.9721C1172.23 46.5093 1176.23 43.2209 1180.46 43.4558L1180.93 43.2209Z" fill="white"/>
</svg>
