<svg width="1440" height="225" viewBox="0 0 1440 225" fill="none" xmlns="http://www.w3.org/2000/svg">
<g clip-path="url(#clip0_11_12638)">
<path d="M884.927 142.484L874.349 141.981V158.603H867.046V111.758L852.438 122.839V159.107H842.364V129.64H829.771V143.744H825.741L809.119 129.64V58.1123L746.406 57.6086C745.147 68.6902 739.858 130.395 739.858 130.395L736.584 130.899L729.784 94.6315L721.221 95.1352L713.917 130.143L699.813 129.64V92.6166L643.145 92.1129C615.189 96.3945 621.234 130.395 621.234 130.395L603.1 131.151V107.728H577.159V147.773H570.61V108.232V81.0312H565.321V64.4087H547.943V81.0312H542.654V88.3351H523.261V69.9495H497.32V20.0819H473.897V107.476H445.186V74.9867H429.571L409.17 74.4829V147.773L385.999 148.529V140.469H377.94V113.269H373.91V107.728H371.392V113.269H370.636V147.773H364.843V81.2831H359.554V64.6605H342.176V81.2831H336.887V88.5869H317.494V70.2014H291.553V20.3338H268.13V107.728H239.419V74.9867H223.804C223.804 74.7348 203.403 74.4829 203.403 74.4829V147.773L179.981 148.277V140.218H171.921V113.017H152.528V93.8759L134.395 99.9205V70.4532C118.276 44.0083 89.8159 45.7713 89.8159 45.7713V141.225L77.2231 140.721V161.625H58.3339V127.121H44.9855V58.8678H3.68098V114.276L-16.9713 114.78V146.766H-29.0604V85.8165L-35.1049 85.3128V78.0089H-66.3352L-76.9132 69.4458C-83.7133 80.0238 -87.2393 130.899 -89.0023 166.914H-109.151V124.854H-145.922V211.745H373.407L884.927 210.989V202.93V141.981V142.484Z" fill="#006633"/>
</g>
<defs>
<clipPath id="clip0_11_12638">
<rect width="1440" height="225" fill="white"/>
</clipPath>
</defs>
</svg>
